<?xml version="1.0" encoding="UTF-8" standalone="no"?>
<!-- Created with Inkscape (http://www.inkscape.org/) -->

<svg
   width="174.61768mm"
   height="69.785393mm"
   viewBox="0 0 174.61767 69.785392"
   version="1.1"
   id="svg1"
   inkscape:version="1.3 (0e150ed6c4, 2023-07-21)"
   sodipodi:docname="pressure3.svg"
   xml:space="preserve"
   xmlns:inkscape="http://www.inkscape.org/namespaces/inkscape"
   xmlns:sodipodi="http://sodipodi.sourceforge.net/DTD/sodipodi-0.dtd"
   xmlns="http://www.w3.org/2000/svg"
   xmlns:svg="http://www.w3.org/2000/svg"
   xmlns:ns1="http://www.iki.fi/pav/software/textext/"><sodipodi:namedview
     id="namedview1"
     pagecolor="#ffffff"
     bordercolor="#000000"
     borderopacity="0.25"
     inkscape:showpageshadow="2"
     inkscape:pageopacity="0.0"
     inkscape:pagecheckerboard="0"
     inkscape:deskcolor="#d1d1d1"
     inkscape:document-units="mm"
     inkscape:zoom="0.72817592"
     inkscape:cx="372.16281"
     inkscape:cy="271.91231"
     inkscape:window-width="1920"
     inkscape:window-height="1008"
     inkscape:window-x="0"
     inkscape:window-y="0"
     inkscape:window-maximized="1"
     inkscape:current-layer="svg1" /><defs
     id="defs1"><marker
       style="overflow:visible"
       refX="0"
       refY="0"
       orient="auto"
       inkscape:stockid="Stop8141"
       markerWidth="1"
       markerHeight="1"
       viewBox="0 0 1 1"
       inkscape:isstock="true"
       inkscape:collect="always"
       preserveAspectRatio="xMidYMid"
       id="Stop8141"><path
         style="fill:#4d4d4d;fill-opacity:1;stroke:#4d4d4d;stroke-width:1;stroke-opacity:1"
         d="M 0,4 V -4"
         id="path74" /></marker><marker
       style="overflow:visible"
       refX="0"
       refY="0"
       orient="auto"
       inkscape:stockid="marker649488"
       markerWidth="1"
       markerHeight="1"
       viewBox="0 0 1 1"
       inkscape:isstock="true"
       inkscape:collect="always"
       preserveAspectRatio="xMidYMid"
       id="marker649488"><path
         style="fill:#4d4d4d;fill-opacity:1;stroke:#4d4d4d;stroke-width:1;stroke-opacity:1"
         d="M 0,4 V -4"
         id="path75" /></marker></defs><g
     inkscape:label="Layer 1"
     inkscape:groupmode="layer"
     id="layer1"
     transform="translate(-19.469557,-34.686483)"><ellipse
       style="opacity:0.674339;fill:#f2f2f2;fill-opacity:1;stroke:#000000;stroke-width:1;stroke-linejoin:bevel;stroke-opacity:1"
       id="path1"
       ry="16.228533"
       rx="47.956207"
       cy="87.74334"
       cx="90.566399" /><g
       transform="matrix(1.20145,0,0,1.19717,83.508623,92.962631)"
       ns1:version="1.9.0"
       ns1:texconverter="pdflatex"
       ns1:pdfconverter="inkscape"
       ns1:text="$\\mathrm{d}\\sigma$"
       ns1:preamble="/usr/share/inkscape/extensions/textext/default_packages.tex"
       ns1:scale="3.3996119336566006"
       ns1:alignment="middle center"
       ns1:stroke-to-path="0"
       ns1:inkscapeversion="1.3"
       id="g6537"
       ns1:jacobian_sqrt="1.1993080907339866"
       style="fill:#4d4d4d;stroke-width:0"><defs
         id="id-6025e5d9-6243-4801-80c3-eb68107844de"
         style="fill:#4d4d4d;stroke-width:0"><g
           id="id-cca8c9a8-81ac-4056-a182-07940a2a8f95"
           style="fill:#4d4d4d;stroke-width:0"><g
             id="id-169b997d-0cb7-44bc-a03c-4c76a027674d"
             style="fill:#4d4d4d;stroke-width:0"><path
               d="m 3.78125,-0.546875 v 0.65625 L 5.25,0 v -0.3125 c -0.6875,0 -0.78125,-0.0625 -0.78125,-0.5625 V -6.921875 L 3.046875,-6.8125 V -6.5 c 0.6875,0 0.765625,0.0625 0.765625,0.5625 v 2.15625 c -0.28125,-0.359375 -0.71875,-0.625 -1.25,-0.625 -1.171875,0 -2.21875,0.984375 -2.21875,2.265625 0,1.265625 0.96875,2.25 2.109375,2.25 0.640625,0 1.078125,-0.34375 1.328125,-0.65625 z m 0,-2.671875 v 2.046875 c 0,0.171875 0,0.1875 -0.109375,0.359375 C 3.375,-0.328125 2.9375,-0.109375 2.5,-0.109375 2.046875,-0.109375 1.6875,-0.375 1.453125,-0.75 1.203125,-1.15625 1.171875,-1.71875 1.171875,-2.140625 1.171875,-2.5 1.1875,-3.09375 1.46875,-3.546875 1.6875,-3.859375 2.0625,-4.1875 2.609375,-4.1875 c 0.34375,0 0.765625,0.15625 1.0625,0.59375 0.109375,0.171875 0.109375,0.1875 0.109375,0.375 z m 0,0"
               id="id-e29cf509-9258-4275-a137-9442430044ba"
               style="fill:#4d4d4d;stroke-width:0" /></g><g
             id="id-17e10a72-2af8-4f18-818a-4842570cd67a"
             style="fill:#4d4d4d;stroke-width:0"><path
               d="m 5.15625,-3.71875 c 0.140625,0 0.5,0 0.5,-0.34375 0,-0.234375 -0.21875,-0.234375 -0.390625,-0.234375 h -2.28125 c -1.5,0 -2.609375,1.640625 -2.609375,2.828125 0,0.875 0.59375,1.578125 1.5,1.578125 1.171875,0 2.5,-1.203125 2.5,-2.734375 0,-0.171875 0,-0.65625 -0.3125,-1.09375 z M 1.890625,-0.109375 C 1.390625,-0.109375 1,-0.46875 1,-1.1875 c 0,-0.296875 0.109375,-1.109375 0.46875,-1.703125 0.421875,-0.6875 1.015625,-0.828125 1.359375,-0.828125 0.828125,0 0.90625,0.65625 0.90625,0.96875 0,0.46875 -0.203125,1.28125 -0.53125,1.796875 -0.390625,0.578125 -0.9375,0.84375 -1.3125,0.84375 z m 0,0"
               id="id-b1669b08-73e5-4045-9e65-09782abbb8c7"
               style="fill:#4d4d4d;stroke-width:0" /></g></g></defs><g
         fill-opacity="1"
         id="id-5687aadb-d9f1-45cf-b173-ed42d1451837"
         transform="translate(-149.056,-127.843)"
         style="fill:#4d4d4d;stroke-width:0"><g
           transform="translate(148.712,134.765)"
           id="g3222"
           style="fill:#4d4d4d;stroke-width:0"><path
             d="m 3.78125,-0.546875 v 0.65625 L 5.25,0 v -0.3125 c -0.6875,0 -0.78125,-0.0625 -0.78125,-0.5625 V -6.921875 L 3.046875,-6.8125 V -6.5 c 0.6875,0 0.765625,0.0625 0.765625,0.5625 v 2.15625 c -0.28125,-0.359375 -0.71875,-0.625 -1.25,-0.625 -1.171875,0 -2.21875,0.984375 -2.21875,2.265625 0,1.265625 0.96875,2.25 2.109375,2.25 0.640625,0 1.078125,-0.34375 1.328125,-0.65625 z m 0,-2.671875 v 2.046875 c 0,0.171875 0,0.1875 -0.109375,0.359375 C 3.375,-0.328125 2.9375,-0.109375 2.5,-0.109375 2.046875,-0.109375 1.6875,-0.375 1.453125,-0.75 1.203125,-1.15625 1.171875,-1.71875 1.171875,-2.140625 1.171875,-2.5 1.1875,-3.09375 1.46875,-3.546875 1.6875,-3.859375 2.0625,-4.1875 2.609375,-4.1875 c 0.34375,0 0.765625,0.15625 1.0625,0.59375 0.109375,0.171875 0.109375,0.1875 0.109375,0.375 z m 0,0"
             id="id-d3640f81-738e-48e2-b2cf-117738d45762"
             style="fill:#4d4d4d;stroke-width:0" /></g></g><g
         fill-opacity="1"
         id="id-860e064a-0f9e-4c1e-a25a-193d16b18b63"
         transform="translate(-149.056,-127.843)"
         style="fill:#4d4d4d;stroke-width:0"><g
           transform="translate(154.247,134.765)"
           id="g7430"
           style="fill:#4d4d4d;stroke-width:0"><path
             d="m 5.15625,-3.71875 c 0.140625,0 0.5,0 0.5,-0.34375 0,-0.234375 -0.21875,-0.234375 -0.390625,-0.234375 h -2.28125 c -1.5,0 -2.609375,1.640625 -2.609375,2.828125 0,0.875 0.59375,1.578125 1.5,1.578125 1.171875,0 2.5,-1.203125 2.5,-2.734375 0,-0.171875 0,-0.65625 -0.3125,-1.09375 z M 1.890625,-0.109375 C 1.390625,-0.109375 1,-0.46875 1,-1.1875 c 0,-0.296875 0.109375,-1.109375 0.46875,-1.703125 0.421875,-0.6875 1.015625,-0.828125 1.359375,-0.828125 0.828125,0 0.90625,0.65625 0.90625,0.96875 0,0.46875 -0.203125,1.28125 -0.53125,1.796875 -0.390625,0.578125 -0.9375,0.84375 -1.3125,0.84375 z m 0,0"
             id="id-0e646603-a1ec-4640-bd68-cfe3c38fc7c5"
             style="fill:#4d4d4d;stroke-width:0" /></g></g></g><g
       transform="matrix(1.20145,0,0,1.19717,39.630015,48.542251)"
       ns1:version="1.9.0"
       ns1:texconverter="pdflatex"
       ns1:pdfconverter="inkscape"
       ns1:text="$\\mathrm{d}\\Omega$"
       ns1:preamble="/usr/share/inkscape/extensions/textext/default_packages.tex"
       ns1:scale="3.3996119336566006"
       ns1:alignment="middle center"
       ns1:stroke-to-path="0"
       ns1:inkscapeversion="1.3"
       id="g50"
       ns1:jacobian_sqrt="1.1993080907339866"
       style="fill:#4d4d4d;stroke-width:0"><defs
   id="id-841464e7-3f00-4bf6-8b19-8ee356379f5e"
   style="fill:#4d4d4d;stroke-width:0">&#10;    <g
   id="id-7394e9b8-60e4-4884-8cd8-c169534db730"
   style="fill:#4d4d4d;stroke-width:0">&#10;      <g
   id="id-a06c855e-a1ac-4a8d-8e99-b502c94bcd3f"
   style="fill:#4d4d4d;stroke-width:0">&#10;        <path
   d="m 3.78125,-0.546875 v 0.65625 L 5.25,0 v -0.3125 c -0.6875,0 -0.78125,-0.0625 -0.78125,-0.5625 V -6.921875 L 3.046875,-6.8125 V -6.5 c 0.6875,0 0.765625,0.0625 0.765625,0.5625 v 2.15625 c -0.28125,-0.359375 -0.71875,-0.625 -1.25,-0.625 -1.171875,0 -2.21875,0.984375 -2.21875,2.265625 0,1.265625 0.96875,2.25 2.109375,2.25 0.640625,0 1.078125,-0.34375 1.328125,-0.65625 z m 0,-2.671875 v 2.046875 c 0,0.171875 0,0.1875 -0.109375,0.359375 C 3.375,-0.328125 2.9375,-0.109375 2.5,-0.109375 2.046875,-0.109375 1.6875,-0.375 1.453125,-0.75 1.203125,-1.15625 1.171875,-1.71875 1.171875,-2.140625 1.171875,-2.5 1.1875,-3.09375 1.46875,-3.546875 1.6875,-3.859375 2.0625,-4.1875 2.609375,-4.1875 c 0.34375,0 0.765625,0.15625 1.0625,0.59375 0.109375,0.171875 0.109375,0.1875 0.109375,0.375 z m 0,0"
   id="id-40960efd-e084-404f-8848-440703276227"
   style="fill:#4d4d4d;stroke-width:0" />&#10;      </g>&#10;      <g
   id="id-7f85bbc7-6a9f-4bd1-adbc-d5598fa20fc4"
   style="fill:#4d4d4d;stroke-width:0">&#10;        <path
   d="M 6.75,-1.609375 H 6.5 c -0.046875,0.25 -0.09375,0.484375 -0.1875,0.71875 -0.046875,0.15625 -0.078125,0.25 -0.65625,0.25 H 4.859375 C 5,-1.203125 5.296875,-1.6875 5.75,-2.34375 c 0.46875,-0.703125 0.875,-1.390625 0.875,-2.1875 0,-1.375 -1.34375,-2.5 -3.03125,-2.5 -1.703125,0 -3.03125,1.140625 -3.03125,2.5 0,0.796875 0.40625,1.484375 0.875,2.1875 0.4375,0.65625 0.75,1.140625 0.890625,1.703125 H 1.53125 C 0.953125,-0.640625 0.921875,-0.734375 0.875,-0.875 0.78125,-1.109375 0.734375,-1.359375 0.6875,-1.609375 h -0.25 L 0.765625,0 h 1.59375 c 0.21875,0 0.25,0 0.25,-0.203125 0,-0.703125 -0.3125,-1.578125 -0.53125,-2.21875 -0.21875,-0.578125 -0.5,-1.359375 -0.5,-2.109375 0,-1.59375 1.109375,-2.28125 2.015625,-2.28125 0.953125,0 2.015625,0.71875 2.015625,2.28125 0,0.75 -0.28125,1.5 -0.5625,2.3125 -0.15625,0.421875 -0.46875,1.328125 -0.46875,2.015625 C 4.578125,0 4.609375,0 4.828125,0 h 1.59375 z m 0,0"
   id="id-8a8ee9c5-c633-40b5-b811-88f10c9e32e4"
   style="fill:#4d4d4d;stroke-width:0" />&#10;      </g>&#10;    </g>&#10;  </defs>&#10;  <g
   fill-opacity="1"
   id="id-2156e22b-6b09-4871-a728-6786220d5bd6"
   transform="translate(-149.056,-127.734)"
   style="fill:#4d4d4d;stroke-width:0">&#10;    <g
   transform="translate(148.712,134.765)"
   id="g6202"
   style="fill:#4d4d4d;stroke-width:0"><path
   d="m 3.78125,-0.546875 v 0.65625 L 5.25,0 v -0.3125 c -0.6875,0 -0.78125,-0.0625 -0.78125,-0.5625 V -6.921875 L 3.046875,-6.8125 V -6.5 c 0.6875,0 0.765625,0.0625 0.765625,0.5625 v 2.15625 c -0.28125,-0.359375 -0.71875,-0.625 -1.25,-0.625 -1.171875,0 -2.21875,0.984375 -2.21875,2.265625 0,1.265625 0.96875,2.25 2.109375,2.25 0.640625,0 1.078125,-0.34375 1.328125,-0.65625 z m 0,-2.671875 v 2.046875 c 0,0.171875 0,0.1875 -0.109375,0.359375 C 3.375,-0.328125 2.9375,-0.109375 2.5,-0.109375 2.046875,-0.109375 1.6875,-0.375 1.453125,-0.75 1.203125,-1.15625 1.171875,-1.71875 1.171875,-2.140625 1.171875,-2.5 1.1875,-3.09375 1.46875,-3.546875 1.6875,-3.859375 2.0625,-4.1875 2.609375,-4.1875 c 0.34375,0 0.765625,0.15625 1.0625,0.59375 0.109375,0.171875 0.109375,0.1875 0.109375,0.375 z m 0,0"
   id="id-c43f82bd-4313-4bdd-9697-d6b5bd9a8f64"
   style="fill:#4d4d4d;stroke-width:0" />&#10;      </g><g
   transform="translate(154.247,134.765)"
   id="g2969"
   style="fill:#4d4d4d;stroke-width:0"><path
   d="M 6.75,-1.609375 H 6.5 c -0.046875,0.25 -0.09375,0.484375 -0.1875,0.71875 -0.046875,0.15625 -0.078125,0.25 -0.65625,0.25 H 4.859375 C 5,-1.203125 5.296875,-1.6875 5.75,-2.34375 c 0.46875,-0.703125 0.875,-1.390625 0.875,-2.1875 0,-1.375 -1.34375,-2.5 -3.03125,-2.5 -1.703125,0 -3.03125,1.140625 -3.03125,2.5 0,0.796875 0.40625,1.484375 0.875,2.1875 0.4375,0.65625 0.75,1.140625 0.890625,1.703125 H 1.53125 C 0.953125,-0.640625 0.921875,-0.734375 0.875,-0.875 0.78125,-1.109375 0.734375,-1.359375 0.6875,-1.609375 h -0.25 L 0.765625,0 h 1.59375 c 0.21875,0 0.25,0 0.25,-0.203125 0,-0.703125 -0.3125,-1.578125 -0.53125,-2.21875 -0.21875,-0.578125 -0.5,-1.359375 -0.5,-2.109375 0,-1.59375 1.109375,-2.28125 2.015625,-2.28125 0.953125,0 2.015625,0.71875 2.015625,2.28125 0,0.75 -0.28125,1.5 -0.5625,2.3125 -0.15625,0.421875 -0.46875,1.328125 -0.46875,2.015625 C 4.578125,0 4.609375,0 4.828125,0 h 1.59375 z m 0,0"
   id="id-3e3a9f11-6efc-4ef6-a447-fa7bfa27cf07"
   style="fill:#4d4d4d;stroke-width:0" />&#10;      </g></g>&#10;</g><ellipse
       style="opacity:1;fill:#f2f2f2;fill-opacity:1;stroke:#4d4d4d;stroke-width:1;stroke-linejoin:bevel;stroke-dasharray:none;stroke-dashoffset:0;stroke-opacity:1"
       id="ellipse55"
       cy="67.032738"
       cx="53.171837"
       rx="9.5461111"
       ry="5.2488813"
       transform="rotate(-15)" /><path
       style="opacity:1;fill:#f1f1f1;fill-opacity:1;stroke:#4d4d4d;stroke-width:1;stroke-linejoin:bevel;stroke-dasharray:none;stroke-dashoffset:0;stroke-opacity:1"
       d="m 91.656204,87.396921 -31.76262,-33.05891 c 0,0 0.596815,1.38459 3.733881,2.06757 2.41478,0.52573 4.803856,0.15249 7.064975,-0.5326 2.261119,-0.6851 3.686629,-1.59527 4.831728,-2.46148 1.547691,-1.17075 2.789714,-3.01331 2.453162,-4.70288 z"
       id="path55"
       sodipodi:nodetypes="ccszscc" /><path
       style="opacity:1;fill:none;fill-opacity:1;stroke:#4d4d4d;stroke-width:1;stroke-linejoin:bevel;stroke-dasharray:1, 1;stroke-dashoffset:0;stroke-opacity:1"
       d="m 68.645225,51.119131 23.615379,36.9501"
       id="path56"
       sodipodi:nodetypes="cc" /><ellipse
       style="opacity:1;fill:none;fill-opacity:1;stroke:#4d4d4d;stroke-width:1;stroke-linejoin:bevel;stroke-dasharray:1, 1;stroke-dashoffset:0;stroke-opacity:1"
       id="ellipse61"
       ry="16.228533"
       rx="47.956207"
       cy="51.415089"
       cx="67.923912" /><path
       style="opacity:1;fill:#000000;fill-opacity:1;stroke:#4d4d4d;stroke-width:1;stroke-linejoin:bevel;stroke-dasharray:1, 1;stroke-dashoffset:0;stroke-opacity:1"
       d="m 21.422161,55.381551 21.188032,32.36178"
       id="path61"
       sodipodi:nodetypes="cc" /><path
       style="opacity:1;fill:#000000;fill-opacity:1;stroke:#4d4d4d;stroke-width:1;stroke-linejoin:bevel;stroke-dasharray:1, 1;stroke-dashoffset:0;stroke-opacity:1"
       d="m 115.88012,51.415081 22.13847,33.98161"
       id="path62"
       sodipodi:nodetypes="cc" /><path
       style="opacity:1;fill:#000000;fill-opacity:1;stroke:#4d4d4d;stroke-width:1;stroke-linejoin:bevel;stroke-dasharray:1, 1;stroke-dashoffset:0;stroke-opacity:1;marker-start:url(#Stop8141);marker-end:url(#marker649488)"
       d="m 138.85709,51.142151 -2.2e-4,36.25477"
       id="path63"
       sodipodi:nodetypes="cc" /><g
       transform="matrix(1.20145,0,0,1.19717,143.20597,59.597471)"
       ns1:version="1.9.0"
       ns1:texconverter="pdflatex"
       ns1:pdfconverter="inkscape"
       ns1:text="$v_p \\cos\\theta \\Delta t$"
       ns1:preamble="/usr/share/inkscape/extensions/textext/default_packages.tex"
       ns1:scale="3.3996119336566006"
       ns1:alignment="middle center"
       ns1:stroke-to-path="0"
       ns1:inkscapeversion="1.3"
       id="g71"
       ns1:jacobian_sqrt="1.1993080907339866"
       style="fill:#4d4d4d;stroke-width:0"><defs
   id="id-33932802-b8d1-4287-bd05-9cbe73b487f2"
   style="fill:#4d4d4d;stroke-width:0">&#10;    <g
   id="id-e922224d-b4f4-4319-bbef-030feba4f5e5"
   style="fill:#4d4d4d;stroke-width:0">&#10;      <g
   id="id-121e02d3-3d79-452d-9b44-b2322b383a45"
   style="fill:#4d4d4d;stroke-width:0">&#10;        <path
   d="m 4.671875,-3.703125 c 0,-0.546875 -0.265625,-0.703125 -0.4375,-0.703125 -0.25,0 -0.5,0.265625 -0.5,0.484375 0,0.125 0.046875,0.1875 0.15625,0.296875 0.21875,0.203125 0.34375,0.453125 0.34375,0.8125 0,0.421875 -0.609375,2.703125 -1.765625,2.703125 -0.515625,0 -0.75,-0.34375 -0.75,-0.875 0,-0.546875 0.28125,-1.28125 0.578125,-2.109375 0.078125,-0.171875 0.125,-0.3125 0.125,-0.5 0,-0.4375 -0.3125,-0.8125 -0.8125,-0.8125 -0.9375,0 -1.3125,1.453125 -1.3125,1.53125 0,0.109375 0.09375,0.109375 0.109375,0.109375 0.109375,0 0.109375,-0.03125 0.15625,-0.1875 0.296875,-1 0.71875,-1.234375 1.015625,-1.234375 0.078125,0 0.25,0 0.25,0.3125 0,0.25 -0.109375,0.53125 -0.171875,0.703125 -0.4375,1.15625 -0.5625,1.609375 -0.5625,2.046875 0,1.078125 0.875,1.234375 1.328125,1.234375 1.671875,0 2.25,-3.296875 2.25,-3.8125 z m 0,0"
   id="id-b9aa1297-5721-41dd-8de2-8b6c1c12a414"
   style="fill:#4d4d4d;stroke-width:0" />&#10;      </g>&#10;      <g
   id="id-2e8f26d3-1895-4989-b0df-64593908a680"
   style="fill:#4d4d4d;stroke-width:0">&#10;        <path
   d="m 4.53125,-4.984375 c 0,-0.65625 -0.171875,-2.046875 -1.1875,-2.046875 -1.390625,0 -2.921875,2.8125 -2.921875,5.09375 0,0.9375 0.28125,2.046875 1.1875,2.046875 1.40625,0 2.921875,-2.859375 2.921875,-5.09375 z M 1.46875,-3.625 C 1.640625,-4.25 1.84375,-5.046875 2.25,-5.765625 2.515625,-6.25 2.875,-6.8125 3.328125,-6.8125 c 0.484375,0 0.546875,0.640625 0.546875,1.203125 0,0.5 -0.078125,1 -0.3125,1.984375 z m 2,0.328125 C 3.359375,-2.84375 3.15625,-2 2.765625,-1.28125 c -0.34375,0.6875 -0.71875,1.171875 -1.15625,1.171875 -0.328125,0 -0.53125,-0.296875 -0.53125,-1.21875 0,-0.421875 0.0625,-1 0.3125,-1.96875 z m 0,0"
   id="id-1329cbc1-bde3-47b9-becd-e2c9a5a8ae2c"
   style="fill:#4d4d4d;stroke-width:0" />&#10;      </g>&#10;      <g
   id="id-c3f1b9ed-6f06-46c1-9b47-5769278cf92a"
   style="fill:#4d4d4d;stroke-width:0">&#10;        <path
   d="m 2.046875,-3.984375 h 0.9375 c 0.203125,0 0.3125,0 0.3125,-0.203125 0,-0.109375 -0.109375,-0.109375 -0.28125,-0.109375 h -0.875 C 2.5,-5.71875 2.546875,-5.90625 2.546875,-5.96875 c 0,-0.171875 -0.125,-0.265625 -0.296875,-0.265625 -0.03125,0 -0.3125,0 -0.390625,0.359375 L 1.46875,-4.296875 h -0.9375 c -0.203125,0 -0.296875,0 -0.296875,0.1875 0,0.125 0.078125,0.125 0.28125,0.125 h 0.875 C 0.671875,-1.15625 0.625,-0.984375 0.625,-0.8125 0.625,-0.265625 1,0.109375 1.546875,0.109375 2.5625,0.109375 3.125,-1.34375 3.125,-1.421875 3.125,-1.53125 3.046875,-1.53125 3.015625,-1.53125 2.921875,-1.53125 2.90625,-1.5 2.859375,-1.390625 2.4375,-0.34375 1.90625,-0.109375 1.5625,-0.109375 c -0.203125,0 -0.3125,-0.125 -0.3125,-0.453125 0,-0.25 0.03125,-0.3125 0.0625,-0.484375 z m 0,0"
   id="id-6b677cef-9daf-42ea-b07b-f1f5df2540b9"
   style="fill:#4d4d4d;stroke-width:0" />&#10;      </g>&#10;      <g
   id="id-3d1128ea-5ef0-41c8-89d8-4cae883a009c"
   style="fill:#4d4d4d;stroke-width:0">&#10;        <path
   d="m 0.515625,0.84375 c -0.046875,0.203125 -0.0625,0.25 -0.328125,0.25 -0.09375,0 -0.1875,0 -0.1875,0.15625 0,0.078125 0.0625,0.109375 0.09375,0.109375 0.171875,0 0.40625,-0.03125 0.59375,-0.03125 0.234375,0 0.5,0.03125 0.734375,0.03125 0.0625,0 0.140625,-0.03125 0.140625,-0.15625 0,-0.109375 -0.09375,-0.109375 -0.1875,-0.109375 -0.15625,0 -0.34375,0 -0.34375,-0.078125 0,-0.03125 0.0625,-0.21875 0.078125,-0.3125 0.09375,-0.375 0.1875,-0.75 0.265625,-1.046875 0.078125,0.140625 0.296875,0.40625 0.71875,0.40625 0.84375,0 1.78125,-0.9375 1.78125,-1.96875 0,-0.8125 -0.5625,-1.171875 -1.03125,-1.171875 -0.4375,0 -0.8125,0.296875 -1,0.5 -0.109375,-0.40625 -0.5,-0.5 -0.71875,-0.5 -0.265625,0 -0.4375,0.1875 -0.546875,0.375 -0.140625,0.234375 -0.25,0.65625 -0.25,0.703125 0,0.078125 0.09375,0.078125 0.125,0.078125 0.09375,0 0.09375,-0.015625 0.140625,-0.203125 0.109375,-0.40625 0.25,-0.75 0.515625,-0.75 0.1875,0 0.234375,0.15625 0.234375,0.34375 0,0.078125 -0.015625,0.15625 -0.03125,0.203125 z M 1.84375,-2.234375 C 2.25,-2.78125 2.59375,-2.875 2.8125,-2.875 c 0.28125,0 0.515625,0.203125 0.515625,0.671875 0,0.28125 -0.15625,1 -0.359375,1.40625 -0.1875,0.34375 -0.515625,0.671875 -0.875,0.671875 -0.5,0 -0.625,-0.53125 -0.625,-0.609375 0,-0.03125 0.015625,-0.078125 0.015625,-0.109375 z m 0,0"
   id="id-889656ac-9e92-49f1-a57d-b1b17960d572"
   style="fill:#4d4d4d;stroke-width:0" />&#10;      </g>&#10;      <g
   id="id-fb351c99-2c89-4d76-acdc-f7de8e3e6728"
   style="fill:#4d4d4d;stroke-width:0">&#10;        <path
   d="m 1.171875,-2.171875 c 0,-1.625 0.8125,-2.046875 1.34375,-2.046875 0.09375,0 0.71875,0.015625 1.0625,0.375 -0.40625,0.03125 -0.46875,0.328125 -0.46875,0.453125 0,0.265625 0.1875,0.453125 0.453125,0.453125 0.265625,0 0.46875,-0.15625 0.46875,-0.46875 0,-0.671875 -0.765625,-1.0625 -1.53125,-1.0625 -1.25,0 -2.15625,1.078125 -2.15625,2.3125 0,1.28125 0.984375,2.265625 2.140625,2.265625 1.328125,0 1.65625,-1.203125 1.65625,-1.296875 0,-0.09375 -0.109375,-0.09375 -0.140625,-0.09375 -0.078125,0 -0.109375,0.03125 -0.125,0.09375 -0.28125,0.921875 -0.9375,1.046875 -1.296875,1.046875 -0.53125,0 -1.40625,-0.421875 -1.40625,-2.03125 z m 0,0"
   id="id-db96c1e0-c506-4232-b529-7c6467992a55"
   style="fill:#4d4d4d;stroke-width:0" />&#10;      </g>&#10;      <g
   id="id-e16e3d8d-c4fa-4300-aa2a-10475a06fdcc"
   style="fill:#4d4d4d;stroke-width:0">&#10;        <path
   d="M 4.6875,-2.140625 C 4.6875,-3.40625 3.703125,-4.46875 2.5,-4.46875 c -1.25,0 -2.21875,1.09375 -2.21875,2.328125 0,1.296875 1.03125,2.25 2.203125,2.25 1.203125,0 2.203125,-0.984375 2.203125,-2.25 z m -2.1875,2 c -0.4375,0 -0.875,-0.203125 -1.140625,-0.671875 -0.25,-0.4375 -0.25,-1.046875 -0.25,-1.40625 0,-0.390625 0,-0.921875 0.234375,-1.359375 C 1.609375,-4.03125 2.078125,-4.25 2.484375,-4.25 c 0.4375,0 0.859375,0.21875 1.125,0.65625 0.265625,0.421875 0.265625,1 0.265625,1.375 0,0.359375 0,0.90625 -0.21875,1.34375 C 3.421875,-0.421875 2.984375,-0.140625 2.5,-0.140625 Z m 0,0"
   id="id-85121ce4-9a3a-4b96-a93e-0e730d1388ab"
   style="fill:#4d4d4d;stroke-width:0" />&#10;      </g>&#10;      <g
   id="id-39570c40-95d8-4249-8698-19a75fa09bda"
   style="fill:#4d4d4d;stroke-width:0">&#10;        <path
   d="m 2.078125,-1.9375 c 0.21875,0.046875 1.03125,0.203125 1.03125,0.921875 0,0.5 -0.34375,0.90625 -1.125,0.90625 -0.84375,0 -1.203125,-0.5625 -1.390625,-1.421875 C 0.5625,-1.65625 0.5625,-1.6875 0.453125,-1.6875 c -0.125,0 -0.125,0.0625 -0.125,0.234375 V -0.125 c 0,0.171875 0,0.234375 0.109375,0.234375 0.046875,0 0.0625,-0.015625 0.25,-0.203125 0.015625,-0.015625 0.015625,-0.03125 0.203125,-0.21875 0.4375,0.40625 0.890625,0.421875 1.09375,0.421875 1.140625,0 1.609375,-0.671875 1.609375,-1.390625 0,-0.515625 -0.296875,-0.828125 -0.421875,-0.9375 C 2.84375,-2.546875 2.453125,-2.625 2.03125,-2.703125 1.46875,-2.8125 0.8125,-2.9375 0.8125,-3.515625 c 0,-0.359375 0.25,-0.765625 1.109375,-0.765625 1.09375,0 1.15625,0.90625 1.171875,1.203125 0,0.09375 0.09375,0.09375 0.109375,0.09375 0.140625,0 0.140625,-0.046875 0.140625,-0.234375 v -1.015625 c 0,-0.15625 0,-0.234375 -0.109375,-0.234375 -0.046875,0 -0.078125,0 -0.203125,0.125 -0.03125,0.03125 -0.125,0.125 -0.171875,0.15625 -0.375,-0.28125 -0.78125,-0.28125 -0.9375,-0.28125 -1.21875,0 -1.59375,0.671875 -1.59375,1.234375 0,0.34375 0.15625,0.625 0.421875,0.84375 0.328125,0.25 0.609375,0.3125 1.328125,0.453125 z m 0,0"
   id="id-fc725ad2-006c-441f-a9c9-7638e7757870"
   style="fill:#4d4d4d;stroke-width:0" />&#10;      </g>&#10;      <g
   id="id-aaf475c4-d09b-4ea2-bb12-ffdbb46750a6"
   style="fill:#4d4d4d;stroke-width:0">&#10;        <path
   d="m 4.40625,-6.953125 c -0.0625,-0.140625 -0.09375,-0.1875 -0.265625,-0.1875 -0.15625,0 -0.1875,0.046875 -0.25,0.1875 l -3.375,6.75 C 0.46875,-0.109375 0.46875,-0.09375 0.46875,-0.078125 0.46875,0 0.53125,0 0.6875,0 h 6.921875 c 0.15625,0 0.21875,0 0.21875,-0.078125 0,-0.015625 0,-0.03125 -0.046875,-0.125 z m -0.578125,0.8125 2.6875,5.390625 h -5.375 z m 0,0"
   id="id-77aafc20-0f6c-4edc-a55c-9939c0eebc65"
   style="fill:#4d4d4d;stroke-width:0" />&#10;      </g>&#10;    </g>&#10;  </defs>&#10;  <g
   fill-opacity="1"
   id="id-340680ec-ba45-4fa4-88ef-9721ee4ca840"
   transform="translate(-149.009,-127.624)"
   style="fill:#4d4d4d;stroke-width:0">&#10;    <g
   transform="translate(148.712,134.765)"
   id="g8623"
   style="fill:#4d4d4d;stroke-width:0"><path
   d="m 4.671875,-3.703125 c 0,-0.546875 -0.265625,-0.703125 -0.4375,-0.703125 -0.25,0 -0.5,0.265625 -0.5,0.484375 0,0.125 0.046875,0.1875 0.15625,0.296875 0.21875,0.203125 0.34375,0.453125 0.34375,0.8125 0,0.421875 -0.609375,2.703125 -1.765625,2.703125 -0.515625,0 -0.75,-0.34375 -0.75,-0.875 0,-0.546875 0.28125,-1.28125 0.578125,-2.109375 0.078125,-0.171875 0.125,-0.3125 0.125,-0.5 0,-0.4375 -0.3125,-0.8125 -0.8125,-0.8125 -0.9375,0 -1.3125,1.453125 -1.3125,1.53125 0,0.109375 0.09375,0.109375 0.109375,0.109375 0.109375,0 0.109375,-0.03125 0.15625,-0.1875 0.296875,-1 0.71875,-1.234375 1.015625,-1.234375 0.078125,0 0.25,0 0.25,0.3125 0,0.25 -0.109375,0.53125 -0.171875,0.703125 -0.4375,1.15625 -0.5625,1.609375 -0.5625,2.046875 0,1.078125 0.875,1.234375 1.328125,1.234375 1.671875,0 2.25,-3.296875 2.25,-3.8125 z m 0,0"
   id="id-a011fd18-f459-4dd2-b55b-606af89b6a22"
   style="fill:#4d4d4d;stroke-width:0" />&#10;      </g></g>&#10;  <g
   fill-opacity="1"
   id="id-a0209705-6204-4245-9fc2-7715b2b08600"
   transform="translate(-149.009,-127.624)"
   style="fill:#4d4d4d;stroke-width:0">&#10;    <g
   transform="translate(153.541,136.259)"
   id="g7779"
   style="fill:#4d4d4d;stroke-width:0"><path
   d="m 0.515625,0.84375 c -0.046875,0.203125 -0.0625,0.25 -0.328125,0.25 -0.09375,0 -0.1875,0 -0.1875,0.15625 0,0.078125 0.0625,0.109375 0.09375,0.109375 0.171875,0 0.40625,-0.03125 0.59375,-0.03125 0.234375,0 0.5,0.03125 0.734375,0.03125 0.0625,0 0.140625,-0.03125 0.140625,-0.15625 0,-0.109375 -0.09375,-0.109375 -0.1875,-0.109375 -0.15625,0 -0.34375,0 -0.34375,-0.078125 0,-0.03125 0.0625,-0.21875 0.078125,-0.3125 0.09375,-0.375 0.1875,-0.75 0.265625,-1.046875 0.078125,0.140625 0.296875,0.40625 0.71875,0.40625 0.84375,0 1.78125,-0.9375 1.78125,-1.96875 0,-0.8125 -0.5625,-1.171875 -1.03125,-1.171875 -0.4375,0 -0.8125,0.296875 -1,0.5 -0.109375,-0.40625 -0.5,-0.5 -0.71875,-0.5 -0.265625,0 -0.4375,0.1875 -0.546875,0.375 -0.140625,0.234375 -0.25,0.65625 -0.25,0.703125 0,0.078125 0.09375,0.078125 0.125,0.078125 0.09375,0 0.09375,-0.015625 0.140625,-0.203125 0.109375,-0.40625 0.25,-0.75 0.515625,-0.75 0.1875,0 0.234375,0.15625 0.234375,0.34375 0,0.078125 -0.015625,0.15625 -0.03125,0.203125 z M 1.84375,-2.234375 C 2.25,-2.78125 2.59375,-2.875 2.8125,-2.875 c 0.28125,0 0.515625,0.203125 0.515625,0.671875 0,0.28125 -0.15625,1 -0.359375,1.40625 -0.1875,0.34375 -0.515625,0.671875 -0.875,0.671875 -0.5,0 -0.625,-0.53125 -0.625,-0.609375 0,-0.03125 0.015625,-0.078125 0.015625,-0.109375 z m 0,0"
   id="id-a967cec0-4efb-442e-bb04-278cb630900a"
   style="fill:#4d4d4d;stroke-width:0" />&#10;      </g></g>&#10;  <g
   fill-opacity="1"
   id="id-a4e4c610-5d43-49eb-8ef6-43920ecdfc1a"
   transform="translate(-149.009,-127.624)"
   style="fill:#4d4d4d;stroke-width:0">&#10;    <g
   transform="translate(159.807,134.765)"
   id="g5473"
   style="fill:#4d4d4d;stroke-width:0"><path
   d="m 1.171875,-2.171875 c 0,-1.625 0.8125,-2.046875 1.34375,-2.046875 0.09375,0 0.71875,0.015625 1.0625,0.375 -0.40625,0.03125 -0.46875,0.328125 -0.46875,0.453125 0,0.265625 0.1875,0.453125 0.453125,0.453125 0.265625,0 0.46875,-0.15625 0.46875,-0.46875 0,-0.671875 -0.765625,-1.0625 -1.53125,-1.0625 -1.25,0 -2.15625,1.078125 -2.15625,2.3125 0,1.28125 0.984375,2.265625 2.140625,2.265625 1.328125,0 1.65625,-1.203125 1.65625,-1.296875 0,-0.09375 -0.109375,-0.09375 -0.140625,-0.09375 -0.078125,0 -0.109375,0.03125 -0.125,0.09375 -0.28125,0.921875 -0.9375,1.046875 -1.296875,1.046875 -0.53125,0 -1.40625,-0.421875 -1.40625,-2.03125 z m 0,0"
   id="id-1a70d7e1-5a9f-4323-ab55-46cd753f6490"
   style="fill:#4d4d4d;stroke-width:0" />&#10;      </g><g
   transform="translate(164.234,134.765)"
   id="g116"
   style="fill:#4d4d4d;stroke-width:0"><path
   d="M 4.6875,-2.140625 C 4.6875,-3.40625 3.703125,-4.46875 2.5,-4.46875 c -1.25,0 -2.21875,1.09375 -2.21875,2.328125 0,1.296875 1.03125,2.25 2.203125,2.25 1.203125,0 2.203125,-0.984375 2.203125,-2.25 z m -2.1875,2 c -0.4375,0 -0.875,-0.203125 -1.140625,-0.671875 -0.25,-0.4375 -0.25,-1.046875 -0.25,-1.40625 0,-0.390625 0,-0.921875 0.234375,-1.359375 C 1.609375,-4.03125 2.078125,-4.25 2.484375,-4.25 c 0.4375,0 0.859375,0.21875 1.125,0.65625 0.265625,0.421875 0.265625,1 0.265625,1.375 0,0.359375 0,0.90625 -0.21875,1.34375 C 3.421875,-0.421875 2.984375,-0.140625 2.5,-0.140625 Z m 0,0"
   id="id-effd1935-d0ca-4cfe-8807-fb3f1366eb9f"
   style="fill:#4d4d4d;stroke-width:0" />&#10;      </g><g
   transform="translate(169.216,134.765)"
   id="g6435"
   style="fill:#4d4d4d;stroke-width:0"><path
   d="m 2.078125,-1.9375 c 0.21875,0.046875 1.03125,0.203125 1.03125,0.921875 0,0.5 -0.34375,0.90625 -1.125,0.90625 -0.84375,0 -1.203125,-0.5625 -1.390625,-1.421875 C 0.5625,-1.65625 0.5625,-1.6875 0.453125,-1.6875 c -0.125,0 -0.125,0.0625 -0.125,0.234375 V -0.125 c 0,0.171875 0,0.234375 0.109375,0.234375 0.046875,0 0.0625,-0.015625 0.25,-0.203125 0.015625,-0.015625 0.015625,-0.03125 0.203125,-0.21875 0.4375,0.40625 0.890625,0.421875 1.09375,0.421875 1.140625,0 1.609375,-0.671875 1.609375,-1.390625 0,-0.515625 -0.296875,-0.828125 -0.421875,-0.9375 C 2.84375,-2.546875 2.453125,-2.625 2.03125,-2.703125 1.46875,-2.8125 0.8125,-2.9375 0.8125,-3.515625 c 0,-0.359375 0.25,-0.765625 1.109375,-0.765625 1.09375,0 1.15625,0.90625 1.171875,1.203125 0,0.09375 0.09375,0.09375 0.109375,0.09375 0.140625,0 0.140625,-0.046875 0.140625,-0.234375 v -1.015625 c 0,-0.15625 0,-0.234375 -0.109375,-0.234375 -0.046875,0 -0.078125,0 -0.203125,0.125 -0.03125,0.03125 -0.125,0.125 -0.171875,0.15625 -0.375,-0.28125 -0.78125,-0.28125 -0.9375,-0.28125 -1.21875,0 -1.59375,0.671875 -1.59375,1.234375 0,0.34375 0.15625,0.625 0.421875,0.84375 0.328125,0.25 0.609375,0.3125 1.328125,0.453125 z m 0,0"
   id="id-93201ab8-383e-4db6-922e-470104ae8b0c"
   style="fill:#4d4d4d;stroke-width:0" />&#10;      </g></g>&#10;  <g
   fill-opacity="1"
   id="id-40af0169-68fb-4472-a6a2-82e66d0d62b4"
   transform="translate(-149.009,-127.624)"
   style="fill:#4d4d4d;stroke-width:0">&#10;    <g
   transform="translate(174.806,134.765)"
   id="g9858"
   style="fill:#4d4d4d;stroke-width:0"><path
   d="m 4.53125,-4.984375 c 0,-0.65625 -0.171875,-2.046875 -1.1875,-2.046875 -1.390625,0 -2.921875,2.8125 -2.921875,5.09375 0,0.9375 0.28125,2.046875 1.1875,2.046875 1.40625,0 2.921875,-2.859375 2.921875,-5.09375 z M 1.46875,-3.625 C 1.640625,-4.25 1.84375,-5.046875 2.25,-5.765625 2.515625,-6.25 2.875,-6.8125 3.328125,-6.8125 c 0.484375,0 0.546875,0.640625 0.546875,1.203125 0,0.5 -0.078125,1 -0.3125,1.984375 z m 2,0.328125 C 3.359375,-2.84375 3.15625,-2 2.765625,-1.28125 c -0.34375,0.6875 -0.71875,1.171875 -1.15625,1.171875 -0.328125,0 -0.53125,-0.296875 -0.53125,-1.21875 0,-0.421875 0.0625,-1 0.3125,-1.96875 z m 0,0"
   id="id-d0d2194f-eee5-4fe3-9b13-052acbbf27ab"
   style="fill:#4d4d4d;stroke-width:0" />&#10;      </g></g>&#10;  <g
   fill-opacity="1"
   id="id-a91ae5aa-7bb7-47e4-bf55-9afe36089a49"
   transform="translate(-149.009,-127.624)"
   style="fill:#4d4d4d;stroke-width:0">&#10;    <g
   transform="translate(179.76,134.765)"
   id="g7857"
   style="fill:#4d4d4d;stroke-width:0"><path
   d="m 4.40625,-6.953125 c -0.0625,-0.140625 -0.09375,-0.1875 -0.265625,-0.1875 -0.15625,0 -0.1875,0.046875 -0.25,0.1875 l -3.375,6.75 C 0.46875,-0.109375 0.46875,-0.09375 0.46875,-0.078125 0.46875,0 0.53125,0 0.6875,0 h 6.921875 c 0.15625,0 0.21875,0 0.21875,-0.078125 0,-0.015625 0,-0.03125 -0.046875,-0.125 z m -0.578125,0.8125 2.6875,5.390625 h -5.375 z m 0,0"
   id="id-4f2b428c-32eb-40df-9359-d771f0a84f36"
   style="fill:#4d4d4d;stroke-width:0" />&#10;      </g></g>&#10;  <g
   fill-opacity="1"
   id="id-7fc383d5-7a19-48e7-8117-2dcf099916c1"
   transform="translate(-149.009,-127.624)"
   style="fill:#4d4d4d;stroke-width:0">&#10;    <g
   transform="translate(188.062,134.765)"
   id="g2820"
   style="fill:#4d4d4d;stroke-width:0"><path
   d="m 2.046875,-3.984375 h 0.9375 c 0.203125,0 0.3125,0 0.3125,-0.203125 0,-0.109375 -0.109375,-0.109375 -0.28125,-0.109375 h -0.875 C 2.5,-5.71875 2.546875,-5.90625 2.546875,-5.96875 c 0,-0.171875 -0.125,-0.265625 -0.296875,-0.265625 -0.03125,0 -0.3125,0 -0.390625,0.359375 L 1.46875,-4.296875 h -0.9375 c -0.203125,0 -0.296875,0 -0.296875,0.1875 0,0.125 0.078125,0.125 0.28125,0.125 h 0.875 C 0.671875,-1.15625 0.625,-0.984375 0.625,-0.8125 0.625,-0.265625 1,0.109375 1.546875,0.109375 2.5625,0.109375 3.125,-1.34375 3.125,-1.421875 3.125,-1.53125 3.046875,-1.53125 3.015625,-1.53125 2.921875,-1.53125 2.90625,-1.5 2.859375,-1.390625 2.4375,-0.34375 1.90625,-0.109375 1.5625,-0.109375 c -0.203125,0 -0.3125,-0.125 -0.3125,-0.453125 0,-0.25 0.03125,-0.3125 0.0625,-0.484375 z m 0,0"
   id="id-b6399788-ed51-4a26-8cb0-17d501409fd3"
   style="fill:#4d4d4d;stroke-width:0" />&#10;      </g></g>&#10;</g><path
       style="opacity:1;fill:none;fill-opacity:1;stroke:#4d4d4d;stroke-width:1;stroke-linejoin:bevel;stroke-dasharray:none;stroke-dashoffset:0;stroke-opacity:1"
       d="m 138.58186,75.232031 h -11.0608 l -0.037,12.16489"
       id="path71"
       sodipodi:nodetypes="ccc" /><path
       style="opacity:1;fill:#000000;fill-opacity:1;stroke:#4d4d4d;stroke-width:1;stroke-linejoin:bevel;stroke-dasharray:none;stroke-dashoffset:0;stroke-opacity:1"
       d="M 91.656203,87.396921 H 138.51167"
       id="path73" /></g></svg>
