<?xml version="1.0" encoding="UTF-8" standalone="no"?>
<!-- Created with Inkscape (http://www.inkscape.org/) -->

<svg
   width="108.68366mm"
   height="93.139389mm"
   viewBox="0 0 108.68366 93.139388"
   version="1.1"
   id="svg1"
   inkscape:version="1.3 (0e150ed6c4, 2023-07-21)"
   sodipodi:docname="diffusion.svg"
   xml:space="preserve"
   xmlns:inkscape="http://www.inkscape.org/namespaces/inkscape"
   xmlns:sodipodi="http://sodipodi.sourceforge.net/DTD/sodipodi-0.dtd"
   xmlns="http://www.w3.org/2000/svg"
   xmlns:svg="http://www.w3.org/2000/svg"
   xmlns:ns1="http://www.iki.fi/pav/software/textext/"><sodipodi:namedview
     id="namedview1"
     pagecolor="#ffffff"
     bordercolor="#000000"
     borderopacity="0.25"
     inkscape:showpageshadow="2"
     inkscape:pageopacity="0.0"
     inkscape:pagecheckerboard="0"
     inkscape:deskcolor="#d1d1d1"
     inkscape:document-units="mm"
     inkscape:zoom="1.7139632"
     inkscape:cx="227.25109"
     inkscape:cy="68.846286"
     inkscape:window-width="1920"
     inkscape:window-height="1008"
     inkscape:window-x="0"
     inkscape:window-y="0"
     inkscape:window-maximized="1"
     inkscape:current-layer="layer1" /><defs
     id="defs1" /><g
     inkscape:label="Layer 1"
     inkscape:groupmode="layer"
     id="layer1"
     transform="translate(-36.102921,-117.14366)"><rect
       style="opacity:1;fill:#f2f2f2;fill-opacity:1;stroke:#4d4d4d;stroke-width:1;stroke-linejoin:bevel"
       id="rect2"
       width="44.440323"
       height="60.192101"
       x="36.602921"
       y="136.86072"
       rx="0"
       ry="0" /><path
       id="rect3"
       style="opacity:1;fill:#f2f2f2;stroke:#4d4d4d;stroke-linejoin:bevel"
       d="M 36.602921,136.86072 H 81.043243 L 100.14667,117.64366 H 55.706346 Z"
       sodipodi:nodetypes="ccccc" /><rect
       style="opacity:1;fill:#f2f2f2;fill-opacity:1;stroke:#4d4d4d;stroke-width:1;stroke-linejoin:bevel"
       id="rect4"
       width="44.440323"
       height="60.192101"
       x="36.602921"
       y="136.86072"
       rx="0"
       ry="0" /><rect
       style="opacity:1;fill:#f2f2f2;fill-opacity:1;stroke:#4d4d4d;stroke-width:1;stroke-linejoin:bevel"
       id="rect5"
       width="44.440323"
       height="60.192101"
       x="80.997528"
       y="136.86072"
       rx="0"
       ry="0" /><path
       id="path5"
       style="opacity:1;fill:#f2f2f2;stroke:#4d4d4d;stroke-linejoin:bevel"
       d="M 80.806079,136.86072 H 125.2464 l 19.10343,-19.21706 H 99.909504 Z"
       sodipodi:nodetypes="ccccc" /><path
       id="rect6"
       style="opacity:1;fill:#f2f2f2;stroke:#4d4d4d;stroke-linejoin:bevel"
       d="m 144.28658,117.60606 -18.84873,19.25466 v 60.1921 l 18.84873,-19.25466 z"
       sodipodi:nodetypes="ccccc" /><path
       id="rect7"
       style="opacity:1;fill:none;stroke:#4d4d4d;stroke-linejoin:bevel;stroke-dasharray:1, 1;stroke-dashoffset:0"
       d="m 36.697901,197.07787 19.03169,-19.25438 v -60.1921"
       sodipodi:nodetypes="ccc" /><path
       id="path7"
       style="opacity:1;fill:none;stroke:#4d4d4d;stroke-linejoin:bevel;stroke-dasharray:1, 1;stroke-dashoffset:0"
       d="m 80.913546,197.07787 19.03169,-19.25438 v -60.1921"
       sodipodi:nodetypes="ccc" /><path
       style="opacity:1;fill:none;fill-opacity:1;stroke:#4d4d4d;stroke-width:1;stroke-linejoin:bevel;stroke-dasharray:1, 1;stroke-dashoffset:0"
       d="M 55.768795,177.29753 H 144.14758"
       id="path8" /><g
       transform="matrix(1.20145,0,0,1.19717,127.40983,152.62451)"
       ns1:version="1.9.0"
       ns1:texconverter="pdflatex"
       ns1:pdfconverter="inkscape"
       ns1:text="$\\mathrm{d}A$"
       ns1:preamble="/usr/share/inkscape/extensions/textext/default_packages.tex"
       ns1:scale="3.3996119336566006"
       ns1:alignment="middle center"
       ns1:stroke-to-path="0"
       ns1:inkscapeversion="1.3"
       id="g6537"
       ns1:jacobian_sqrt="1.1993080907339866"
       style="fill:#4d4d4d;stroke-width:0"><defs
   id="id-6f932bde-5e63-49a3-aa49-58a6c2d301c0"
   style="fill:#4d4d4d;stroke-width:0">&#10;    <g
   id="id-81d72171-be00-4c5f-921f-91d6c62950c8"
   style="fill:#4d4d4d;stroke-width:0">&#10;      <g
   id="id-71fd6d8d-38eb-4d86-938f-6a66b09bc20d"
   style="fill:#4d4d4d;stroke-width:0">&#10;        <path
   d="m 3.78125,-0.546875 v 0.65625 L 5.25,0 v -0.3125 c -0.6875,0 -0.78125,-0.0625 -0.78125,-0.5625 V -6.921875 L 3.046875,-6.8125 V -6.5 c 0.6875,0 0.765625,0.0625 0.765625,0.5625 v 2.15625 c -0.28125,-0.359375 -0.71875,-0.625 -1.25,-0.625 -1.171875,0 -2.21875,0.984375 -2.21875,2.265625 0,1.265625 0.96875,2.25 2.109375,2.25 0.640625,0 1.078125,-0.34375 1.328125,-0.65625 z m 0,-2.671875 v 2.046875 c 0,0.171875 0,0.1875 -0.109375,0.359375 C 3.375,-0.328125 2.9375,-0.109375 2.5,-0.109375 2.046875,-0.109375 1.6875,-0.375 1.453125,-0.75 1.203125,-1.15625 1.171875,-1.71875 1.171875,-2.140625 1.171875,-2.5 1.1875,-3.09375 1.46875,-3.546875 1.6875,-3.859375 2.0625,-4.1875 2.609375,-4.1875 c 0.34375,0 0.765625,0.15625 1.0625,0.59375 0.109375,0.171875 0.109375,0.1875 0.109375,0.375 z m 0,0"
   id="id-6f2fca34-9362-4bdd-84b0-212b51cbc01e"
   style="fill:#4d4d4d;stroke-width:0" />&#10;      </g>&#10;      <g
   id="id-fd635ae6-bdb6-40cf-91ea-6e95c3f0cc4c"
   style="fill:#4d4d4d;stroke-width:0">&#10;        <path
   d="M 1.78125,-1.140625 C 1.390625,-0.484375 1,-0.34375 0.5625,-0.3125 0.4375,-0.296875 0.34375,-0.296875 0.34375,-0.109375 0.34375,-0.046875 0.40625,0 0.484375,0 0.75,0 1.0625,-0.03125 1.328125,-0.03125 c 0.34375,0 0.6875,0.03125 1,0.03125 0.0625,0 0.1875,0 0.1875,-0.1875 0,-0.109375 -0.078125,-0.125 -0.15625,-0.125 -0.21875,-0.015625 -0.46875,-0.09375 -0.46875,-0.34375 0,-0.125 0.0625,-0.234375 0.140625,-0.375 l 0.765625,-1.265625 h 2.5 c 0.015625,0.203125 0.15625,1.5625 0.15625,1.65625 0,0.296875 -0.515625,0.328125 -0.71875,0.328125 C 4.59375,-0.3125 4.5,-0.3125 4.5,-0.109375 4.5,0 4.609375,0 4.640625,0 5.046875,0 5.46875,-0.03125 5.875,-0.03125 6.125,-0.03125 6.765625,0 7.015625,0 7.0625,0 7.1875,0 7.1875,-0.203125 7.1875,-0.3125 7.09375,-0.3125 6.953125,-0.3125 6.34375,-0.3125 6.34375,-0.375 6.3125,-0.671875 l -0.609375,-6.21875 c -0.015625,-0.203125 -0.015625,-0.25 -0.1875,-0.25 -0.15625,0 -0.203125,0.078125 -0.265625,0.171875 z M 2.984375,-2.609375 4.9375,-5.90625 5.265625,-2.609375 Z m 0,0"
   id="id-77029b28-6ded-468d-91f9-b1753bbf0c69"
   style="fill:#4d4d4d;stroke-width:0" />&#10;      </g>&#10;    </g>&#10;  </defs>&#10;  <g
   fill-opacity="1"
   id="id-b3d36a1a-7db1-4bdf-9bdd-358652b3e29a"
   transform="translate(-149.056,-127.624)"
   style="fill:#4d4d4d;stroke-width:0">&#10;    <g
   transform="translate(148.712,134.765)"
   id="g7411"
   style="fill:#4d4d4d;stroke-width:0"><path
   d="m 3.78125,-0.546875 v 0.65625 L 5.25,0 v -0.3125 c -0.6875,0 -0.78125,-0.0625 -0.78125,-0.5625 V -6.921875 L 3.046875,-6.8125 V -6.5 c 0.6875,0 0.765625,0.0625 0.765625,0.5625 v 2.15625 c -0.28125,-0.359375 -0.71875,-0.625 -1.25,-0.625 -1.171875,0 -2.21875,0.984375 -2.21875,2.265625 0,1.265625 0.96875,2.25 2.109375,2.25 0.640625,0 1.078125,-0.34375 1.328125,-0.65625 z m 0,-2.671875 v 2.046875 c 0,0.171875 0,0.1875 -0.109375,0.359375 C 3.375,-0.328125 2.9375,-0.109375 2.5,-0.109375 2.046875,-0.109375 1.6875,-0.375 1.453125,-0.75 1.203125,-1.15625 1.171875,-1.71875 1.171875,-2.140625 1.171875,-2.5 1.1875,-3.09375 1.46875,-3.546875 1.6875,-3.859375 2.0625,-4.1875 2.609375,-4.1875 c 0.34375,0 0.765625,0.15625 1.0625,0.59375 0.109375,0.171875 0.109375,0.1875 0.109375,0.375 z m 0,0"
   id="id-89192bc7-41af-432c-8c4f-68111783c0fe"
   style="fill:#4d4d4d;stroke-width:0" />&#10;      </g></g>&#10;  <g
   fill-opacity="1"
   id="id-75b6cf03-749c-433e-a31a-2306650f57ce"
   transform="translate(-149.056,-127.624)"
   style="fill:#4d4d4d;stroke-width:0">&#10;    <g
   transform="translate(154.247,134.765)"
   id="g9762"
   style="fill:#4d4d4d;stroke-width:0"><path
   d="M 1.78125,-1.140625 C 1.390625,-0.484375 1,-0.34375 0.5625,-0.3125 0.4375,-0.296875 0.34375,-0.296875 0.34375,-0.109375 0.34375,-0.046875 0.40625,0 0.484375,0 0.75,0 1.0625,-0.03125 1.328125,-0.03125 c 0.34375,0 0.6875,0.03125 1,0.03125 0.0625,0 0.1875,0 0.1875,-0.1875 0,-0.109375 -0.078125,-0.125 -0.15625,-0.125 -0.21875,-0.015625 -0.46875,-0.09375 -0.46875,-0.34375 0,-0.125 0.0625,-0.234375 0.140625,-0.375 l 0.765625,-1.265625 h 2.5 c 0.015625,0.203125 0.15625,1.5625 0.15625,1.65625 0,0.296875 -0.515625,0.328125 -0.71875,0.328125 C 4.59375,-0.3125 4.5,-0.3125 4.5,-0.109375 4.5,0 4.609375,0 4.640625,0 5.046875,0 5.46875,-0.03125 5.875,-0.03125 6.125,-0.03125 6.765625,0 7.015625,0 7.0625,0 7.1875,0 7.1875,-0.203125 7.1875,-0.3125 7.09375,-0.3125 6.953125,-0.3125 6.34375,-0.3125 6.34375,-0.375 6.3125,-0.671875 l -0.609375,-6.21875 c -0.015625,-0.203125 -0.015625,-0.25 -0.1875,-0.25 -0.15625,0 -0.203125,0.078125 -0.265625,0.171875 z M 2.984375,-2.609375 4.9375,-5.90625 5.265625,-2.609375 Z m 0,0"
   id="id-930c4f71-2a18-42f8-bf0c-862301e7a16e"
   style="fill:#4d4d4d;stroke-width:0" />&#10;      </g></g>&#10;</g><g
       transform="matrix(1.20145,0,0,1.19717,100.02439,200.20767)"
       ns1:version="1.9.0"
       ns1:texconverter="pdflatex"
       ns1:pdfconverter="inkscape"
       ns1:text="$l_\\mathrm{f}$"
       ns1:preamble="/usr/share/inkscape/extensions/textext/default_packages.tex"
       ns1:scale="3.3996119336566006"
       ns1:alignment="middle center"
       ns1:stroke-to-path="0"
       ns1:inkscapeversion="1.3"
       id="g16"
       ns1:jacobian_sqrt="1.1993080907339866"
       style="fill:#4d4d4d;stroke-width:0"><defs
   id="id-20157266-ac02-4a70-9800-9b2dba4b0a44"
   style="fill:#4d4d4d;stroke-width:0">&#10;    <g
   id="id-7c666b3b-b821-4380-b626-532b76a16194"
   style="fill:#4d4d4d;stroke-width:0">&#10;      <g
   id="id-9cc136c1-6226-481d-b80b-a0363285d72e"
   style="fill:#4d4d4d;stroke-width:0">&#10;        <path
   d="m 2.578125,-6.8125 c 0,0 0,-0.109375 -0.140625,-0.109375 -0.21875,0 -0.953125,0.078125 -1.21875,0.109375 -0.078125,0 -0.1875,0.015625 -0.1875,0.203125 0,0.109375 0.109375,0.109375 0.25,0.109375 0.484375,0 0.5,0.09375 0.5,0.171875 L 1.75,-6.125 0.484375,-1.140625 C 0.453125,-1.03125 0.4375,-0.96875 0.4375,-0.8125 c 0,0.578125 0.4375,0.921875 0.90625,0.921875 0.328125,0 0.578125,-0.203125 0.75,-0.5625 0.171875,-0.375 0.296875,-0.953125 0.296875,-0.96875 0,-0.109375 -0.09375,-0.109375 -0.125,-0.109375 -0.09375,0 -0.109375,0.046875 -0.125,0.1875 C 1.96875,-0.703125 1.78125,-0.109375 1.375,-0.109375 c -0.296875,0 -0.296875,-0.3125 -0.296875,-0.453125 0,-0.25 0.015625,-0.296875 0.0625,-0.484375 z m 0,0"
   id="id-5be485f0-e9df-4acd-a1fa-ce48b85b1f25"
   style="fill:#4d4d4d;stroke-width:0" />&#10;      </g>&#10;      <g
   id="id-addef99b-f03e-427b-838e-e982848400c2"
   style="fill:#4d4d4d;stroke-width:0">&#10;        <path
   d="m 1.4375,-2.75 h 0.875 V -3 H 1.40625 v -0.78125 c 0,-0.640625 0.375,-0.921875 0.671875,-0.921875 0.0625,0 0.140625,0 0.203125,0.03125 C 2.1875,-4.625 2.125,-4.515625 2.125,-4.390625 c 0,0.1875 0.140625,0.3125 0.328125,0.3125 0.1875,0 0.328125,-0.125 0.328125,-0.3125 0,-0.3125 -0.3125,-0.515625 -0.6875,-0.515625 -0.546875,0 -1.1875,0.390625 -1.1875,1.125 V -3 H 0.3125 v 0.25 h 0.59375 v 2.203125 C 0.90625,-0.25 0.84375,-0.25 0.390625,-0.25 V 0 C 0.421875,0 0.90625,-0.03125 1.1875,-0.03125 1.484375,-0.03125 1.796875,-0.015625 2.09375,0 V -0.25 H 1.953125 C 1.4375,-0.25 1.4375,-0.328125 1.4375,-0.5625 Z m 0,0"
   id="id-30e8b21d-28c9-4b71-883e-169d21fd9f8a"
   style="fill:#4d4d4d;stroke-width:0" />&#10;      </g>&#10;    </g>&#10;  </defs>&#10;  <g
   fill-opacity="1"
   id="id-384ec6cd-ee4e-4128-9f44-58e86bf87e3d"
   transform="translate(-149.15,-127.843)"
   style="fill:#4d4d4d;stroke-width:0">&#10;    <g
   transform="translate(148.712,134.765)"
   id="g4721"
   style="fill:#4d4d4d;stroke-width:0"><path
   d="m 2.578125,-6.8125 c 0,0 0,-0.109375 -0.140625,-0.109375 -0.21875,0 -0.953125,0.078125 -1.21875,0.109375 -0.078125,0 -0.1875,0.015625 -0.1875,0.203125 0,0.109375 0.109375,0.109375 0.25,0.109375 0.484375,0 0.5,0.09375 0.5,0.171875 L 1.75,-6.125 0.484375,-1.140625 C 0.453125,-1.03125 0.4375,-0.96875 0.4375,-0.8125 c 0,0.578125 0.4375,0.921875 0.90625,0.921875 0.328125,0 0.578125,-0.203125 0.75,-0.5625 0.171875,-0.375 0.296875,-0.953125 0.296875,-0.96875 0,-0.109375 -0.09375,-0.109375 -0.125,-0.109375 -0.09375,0 -0.109375,0.046875 -0.125,0.1875 C 1.96875,-0.703125 1.78125,-0.109375 1.375,-0.109375 c -0.296875,0 -0.296875,-0.3125 -0.296875,-0.453125 0,-0.25 0.015625,-0.296875 0.0625,-0.484375 z m 0,0"
   id="id-cdd88b49-7da9-4e30-96f8-b06e0dd6d5e1"
   style="fill:#4d4d4d;stroke-width:0" />&#10;      </g></g>&#10;  <g
   fill-opacity="1"
   id="id-2837d18d-cfee-4e21-a1e8-2c1d44f135d8"
   transform="translate(-149.15,-127.843)"
   style="fill:#4d4d4d;stroke-width:0">&#10;    <g
   transform="translate(151.685,136.259)"
   id="g9358"
   style="fill:#4d4d4d;stroke-width:0"><path
   d="m 1.4375,-2.75 h 0.875 V -3 H 1.40625 v -0.78125 c 0,-0.640625 0.375,-0.921875 0.671875,-0.921875 0.0625,0 0.140625,0 0.203125,0.03125 C 2.1875,-4.625 2.125,-4.515625 2.125,-4.390625 c 0,0.1875 0.140625,0.3125 0.328125,0.3125 0.1875,0 0.328125,-0.125 0.328125,-0.3125 0,-0.3125 -0.3125,-0.515625 -0.6875,-0.515625 -0.546875,0 -1.1875,0.390625 -1.1875,1.125 V -3 H 0.3125 v 0.25 h 0.59375 v 2.203125 C 0.90625,-0.25 0.84375,-0.25 0.390625,-0.25 V 0 C 0.421875,0 0.90625,-0.03125 1.1875,-0.03125 1.484375,-0.03125 1.796875,-0.015625 2.09375,0 V -0.25 H 1.953125 C 1.4375,-0.25 1.4375,-0.328125 1.4375,-0.5625 Z m 0,0"
   id="id-dbaf9570-7448-4ef1-bda4-578680cd9bc7"
   style="fill:#4d4d4d;stroke-width:0" />&#10;      </g></g>&#10;</g><g
       transform="matrix(1.20145,0,0,1.19717,55.629778,200.20767)"
       ns1:version="1.9.0"
       ns1:texconverter="pdflatex"
       ns1:pdfconverter="inkscape"
       ns1:text="$l_\\mathrm{f}$"
       ns1:preamble="/usr/share/inkscape/extensions/textext/default_packages.tex"
       ns1:scale="3.3996119336566006"
       ns1:alignment="middle center"
       ns1:stroke-to-path="0"
       ns1:inkscapeversion="1.3"
       id="g24"
       ns1:jacobian_sqrt="1.1993080907339866"
       style="fill:#4d4d4d;stroke-width:0"><defs
   id="defs19"
   style="fill:#4d4d4d;stroke-width:0">&#10;    <g
   id="g19"
   style="fill:#4d4d4d;stroke-width:0">&#10;      <g
   id="g17"
   style="fill:#4d4d4d;stroke-width:0">&#10;        <path
   d="m 2.578125,-6.8125 c 0,0 0,-0.109375 -0.140625,-0.109375 -0.21875,0 -0.953125,0.078125 -1.21875,0.109375 -0.078125,0 -0.1875,0.015625 -0.1875,0.203125 0,0.109375 0.109375,0.109375 0.25,0.109375 0.484375,0 0.5,0.09375 0.5,0.171875 L 1.75,-6.125 0.484375,-1.140625 C 0.453125,-1.03125 0.4375,-0.96875 0.4375,-0.8125 c 0,0.578125 0.4375,0.921875 0.90625,0.921875 0.328125,0 0.578125,-0.203125 0.75,-0.5625 0.171875,-0.375 0.296875,-0.953125 0.296875,-0.96875 0,-0.109375 -0.09375,-0.109375 -0.125,-0.109375 -0.09375,0 -0.109375,0.046875 -0.125,0.1875 C 1.96875,-0.703125 1.78125,-0.109375 1.375,-0.109375 c -0.296875,0 -0.296875,-0.3125 -0.296875,-0.453125 0,-0.25 0.015625,-0.296875 0.0625,-0.484375 z m 0,0"
   id="path16"
   style="fill:#4d4d4d;stroke-width:0" />&#10;      </g>&#10;      <g
   id="g18"
   style="fill:#4d4d4d;stroke-width:0">&#10;        <path
   d="m 1.4375,-2.75 h 0.875 V -3 H 1.40625 v -0.78125 c 0,-0.640625 0.375,-0.921875 0.671875,-0.921875 0.0625,0 0.140625,0 0.203125,0.03125 C 2.1875,-4.625 2.125,-4.515625 2.125,-4.390625 c 0,0.1875 0.140625,0.3125 0.328125,0.3125 0.1875,0 0.328125,-0.125 0.328125,-0.3125 0,-0.3125 -0.3125,-0.515625 -0.6875,-0.515625 -0.546875,0 -1.1875,0.390625 -1.1875,1.125 V -3 H 0.3125 v 0.25 h 0.59375 v 2.203125 C 0.90625,-0.25 0.84375,-0.25 0.390625,-0.25 V 0 C 0.421875,0 0.90625,-0.03125 1.1875,-0.03125 1.484375,-0.03125 1.796875,-0.015625 2.09375,0 V -0.25 H 1.953125 C 1.4375,-0.25 1.4375,-0.328125 1.4375,-0.5625 Z m 0,0"
   id="path17"
   style="fill:#4d4d4d;stroke-width:0" />&#10;      </g>&#10;    </g>&#10;  </defs>&#10;  <g
   fill-opacity="1"
   id="g21"
   transform="translate(-149.15,-127.843)"
   style="fill:#4d4d4d;stroke-width:0">&#10;    <g
   transform="translate(148.712,134.765)"
   id="g20"
   style="fill:#4d4d4d;stroke-width:0"><path
   d="m 2.578125,-6.8125 c 0,0 0,-0.109375 -0.140625,-0.109375 -0.21875,0 -0.953125,0.078125 -1.21875,0.109375 -0.078125,0 -0.1875,0.015625 -0.1875,0.203125 0,0.109375 0.109375,0.109375 0.25,0.109375 0.484375,0 0.5,0.09375 0.5,0.171875 L 1.75,-6.125 0.484375,-1.140625 C 0.453125,-1.03125 0.4375,-0.96875 0.4375,-0.8125 c 0,0.578125 0.4375,0.921875 0.90625,0.921875 0.328125,0 0.578125,-0.203125 0.75,-0.5625 0.171875,-0.375 0.296875,-0.953125 0.296875,-0.96875 0,-0.109375 -0.09375,-0.109375 -0.125,-0.109375 -0.09375,0 -0.109375,0.046875 -0.125,0.1875 C 1.96875,-0.703125 1.78125,-0.109375 1.375,-0.109375 c -0.296875,0 -0.296875,-0.3125 -0.296875,-0.453125 0,-0.25 0.015625,-0.296875 0.0625,-0.484375 z m 0,0"
   id="path19"
   style="fill:#4d4d4d;stroke-width:0" />&#10;      </g></g>&#10;  <g
   fill-opacity="1"
   id="g23"
   transform="translate(-149.15,-127.843)"
   style="fill:#4d4d4d;stroke-width:0">&#10;    <g
   transform="translate(151.685,136.259)"
   id="g22"
   style="fill:#4d4d4d;stroke-width:0"><path
   d="m 1.4375,-2.75 h 0.875 V -3 H 1.40625 v -0.78125 c 0,-0.640625 0.375,-0.921875 0.671875,-0.921875 0.0625,0 0.140625,0 0.203125,0.03125 C 2.1875,-4.625 2.125,-4.515625 2.125,-4.390625 c 0,0.1875 0.140625,0.3125 0.328125,0.3125 0.1875,0 0.328125,-0.125 0.328125,-0.3125 0,-0.3125 -0.3125,-0.515625 -0.6875,-0.515625 -0.546875,0 -1.1875,0.390625 -1.1875,1.125 V -3 H 0.3125 v 0.25 h 0.59375 v 2.203125 C 0.90625,-0.25 0.84375,-0.25 0.390625,-0.25 V 0 C 0.421875,0 0.90625,-0.03125 1.1875,-0.03125 1.484375,-0.03125 1.796875,-0.015625 2.09375,0 V -0.25 H 1.953125 C 1.4375,-0.25 1.4375,-0.328125 1.4375,-0.5625 Z m 0,0"
   id="path21"
   style="fill:#4d4d4d;stroke-width:0" />&#10;      </g></g>&#10;</g><g
       transform="matrix(1.20145,0,0,1.19717,60.3822,123.692)"
       ns1:version="1.9.0"
       ns1:texconverter="pdflatex"
       ns1:pdfconverter="inkscape"
       ns1:text="$n_{-x}$"
       ns1:preamble="/usr/share/inkscape/extensions/textext/default_packages.tex"
       ns1:scale="3.3996119336566006"
       ns1:alignment="middle center"
       ns1:stroke-to-path="0"
       ns1:inkscapeversion="1.3"
       id="g32"
       ns1:jacobian_sqrt="1.1993080907339866"
       style="fill:#4d4d4d;stroke-width:0"><defs
   id="id-3fe0e376-b7ec-477e-a0f5-f26eb571f56b"
   style="fill:#4d4d4d;stroke-width:0">&#10;    <g
   id="id-1045e7c4-0f95-4e24-93aa-41f7f4b44a7b"
   style="fill:#4d4d4d;stroke-width:0">&#10;      <g
   id="id-231a812c-a378-4183-9dcd-4c7ba64b47eb"
   style="fill:#4d4d4d;stroke-width:0">&#10;        <path
   d="m 0.875,-0.59375 c -0.03125,0.15625 -0.09375,0.390625 -0.09375,0.4375 0,0.171875 0.140625,0.265625 0.296875,0.265625 0.125,0 0.296875,-0.078125 0.375,-0.28125 0,-0.015625 0.125,-0.484375 0.1875,-0.734375 l 0.21875,-0.890625 C 1.90625,-2.03125 1.96875,-2.25 2.03125,-2.46875 c 0.03125,-0.171875 0.109375,-0.46875 0.125,-0.5 0.140625,-0.3125 0.671875,-1.21875 1.625,-1.21875 0.453125,0 0.53125,0.375 0.53125,0.703125 0,0.609375 -0.484375,1.890625 -0.640625,2.3125 C 3.578125,-0.9375 3.5625,-0.8125 3.5625,-0.703125 c 0,0.46875 0.359375,0.8125 0.828125,0.8125 0.9375,0 1.296875,-1.453125 1.296875,-1.53125 0,-0.109375 -0.078125,-0.109375 -0.109375,-0.109375 -0.109375,0 -0.109375,0.03125 -0.15625,0.1875 -0.203125,0.671875 -0.53125,1.234375 -1.015625,1.234375 -0.171875,0 -0.234375,-0.09375 -0.234375,-0.328125 0,-0.25 0.078125,-0.484375 0.171875,-0.703125 0.1875,-0.53125 0.609375,-1.625 0.609375,-2.203125 0,-0.65625 -0.421875,-1.0625 -1.140625,-1.0625 -0.90625,0 -1.390625,0.640625 -1.5625,0.875 -0.046875,-0.5625 -0.453125,-0.875 -0.921875,-0.875 -0.453125,0 -0.640625,0.390625 -0.734375,0.5625 C 0.421875,-3.5 0.296875,-2.90625 0.296875,-2.875 c 0,0.109375 0.09375,0.109375 0.109375,0.109375 0.109375,0 0.109375,-0.015625 0.171875,-0.234375 0.171875,-0.703125 0.375,-1.1875 0.734375,-1.1875 0.1875,0 0.296875,0.125 0.296875,0.453125 0,0.21875 -0.03125,0.328125 -0.15625,0.84375 z m 0,0"
   id="id-8245098c-a2dd-47db-a795-df9d615eed8e"
   style="fill:#4d4d4d;stroke-width:0" />&#10;      </g>&#10;      <g
   id="id-b8f73de4-efc0-4ebe-80a5-84a56c81ddb2"
   style="fill:#4d4d4d;stroke-width:0">&#10;        <path
   d="m 5.1875,-1.578125 c 0.109375,0 0.28125,0 0.28125,-0.15625 0,-0.1875 -0.171875,-0.1875 -0.28125,-0.1875 H 1.03125 c -0.109375,0 -0.28125,0 -0.28125,0.171875 0,0.171875 0.15625,0.171875 0.28125,0.171875 z m 0,0"
   id="id-de2a2923-9fce-471d-bdc5-899867c89eae"
   style="fill:#4d4d4d;stroke-width:0" />&#10;      </g>&#10;      <g
   id="id-90025220-4187-4aa8-b567-98fc38c3b70b"
   style="fill:#4d4d4d;stroke-width:0">&#10;        <path
   d="M 1.734375,-0.734375 C 1.671875,-0.5 1.4375,-0.125 1.078125,-0.125 c -0.015625,0 -0.234375,0 -0.375,-0.09375 0.28125,-0.09375 0.3125,-0.34375 0.3125,-0.390625 0,-0.15625 -0.125,-0.25 -0.28125,-0.25 -0.203125,0 -0.40625,0.15625 -0.40625,0.421875 0,0.34375 0.390625,0.5 0.734375,0.5 0.328125,0 0.609375,-0.1875 0.78125,-0.484375 C 2.015625,-0.0625 2.390625,0.0625 2.671875,0.0625 c 0.8125,0 1.234375,-0.859375 1.234375,-1.0625 0,-0.09375 -0.09375,-0.09375 -0.109375,-0.09375 -0.109375,0 -0.109375,0.046875 -0.140625,0.125 -0.140625,0.484375 -0.5625,0.84375 -0.953125,0.84375 -0.28125,0 -0.421875,-0.1875 -0.421875,-0.453125 0,-0.1875 0.171875,-0.8125 0.359375,-1.59375 C 2.78125,-2.703125 3.09375,-2.875 3.328125,-2.875 c 0.015625,0 0.21875,0 0.375,0.09375 -0.21875,0.0625 -0.3125,0.265625 -0.3125,0.390625 0,0.140625 0.125,0.25 0.28125,0.25 0.15625,0 0.390625,-0.125 0.390625,-0.421875 0,-0.390625 -0.453125,-0.515625 -0.71875,-0.515625 -0.359375,0 -0.640625,0.234375 -0.78125,0.5 -0.125,-0.28125 -0.453125,-0.5 -0.84375,-0.5 C 0.9375,-3.078125 0.5,-2.21875 0.5,-2 c 0,0.078125 0.09375,0.078125 0.109375,0.078125 0.09375,0 0.09375,-0.015625 0.140625,-0.109375 C 0.921875,-2.578125 1.359375,-2.875 1.703125,-2.875 1.9375,-2.875 2.125,-2.75 2.125,-2.421875 2.125,-2.28125 2.03125,-1.9375 1.96875,-1.6875 Z m 0,0"
   id="id-1285c9d5-94e0-49e2-b061-710956948f56"
   style="fill:#4d4d4d;stroke-width:0" />&#10;      </g>&#10;    </g>&#10;  </defs>&#10;  <g
   fill-opacity="1"
   id="id-9cf390d9-660b-417f-aa16-38146684a0eb"
   transform="translate(-149.009,-130.359)"
   style="fill:#4d4d4d;stroke-width:0">&#10;    <g
   transform="translate(148.712,134.765)"
   id="g6355"
   style="fill:#4d4d4d;stroke-width:0"><path
   d="m 0.875,-0.59375 c -0.03125,0.15625 -0.09375,0.390625 -0.09375,0.4375 0,0.171875 0.140625,0.265625 0.296875,0.265625 0.125,0 0.296875,-0.078125 0.375,-0.28125 0,-0.015625 0.125,-0.484375 0.1875,-0.734375 l 0.21875,-0.890625 C 1.90625,-2.03125 1.96875,-2.25 2.03125,-2.46875 c 0.03125,-0.171875 0.109375,-0.46875 0.125,-0.5 0.140625,-0.3125 0.671875,-1.21875 1.625,-1.21875 0.453125,0 0.53125,0.375 0.53125,0.703125 0,0.609375 -0.484375,1.890625 -0.640625,2.3125 C 3.578125,-0.9375 3.5625,-0.8125 3.5625,-0.703125 c 0,0.46875 0.359375,0.8125 0.828125,0.8125 0.9375,0 1.296875,-1.453125 1.296875,-1.53125 0,-0.109375 -0.078125,-0.109375 -0.109375,-0.109375 -0.109375,0 -0.109375,0.03125 -0.15625,0.1875 -0.203125,0.671875 -0.53125,1.234375 -1.015625,1.234375 -0.171875,0 -0.234375,-0.09375 -0.234375,-0.328125 0,-0.25 0.078125,-0.484375 0.171875,-0.703125 0.1875,-0.53125 0.609375,-1.625 0.609375,-2.203125 0,-0.65625 -0.421875,-1.0625 -1.140625,-1.0625 -0.90625,0 -1.390625,0.640625 -1.5625,0.875 -0.046875,-0.5625 -0.453125,-0.875 -0.921875,-0.875 -0.453125,0 -0.640625,0.390625 -0.734375,0.5625 C 0.421875,-3.5 0.296875,-2.90625 0.296875,-2.875 c 0,0.109375 0.09375,0.109375 0.109375,0.109375 0.109375,0 0.109375,-0.015625 0.171875,-0.234375 0.171875,-0.703125 0.375,-1.1875 0.734375,-1.1875 0.1875,0 0.296875,0.125 0.296875,0.453125 0,0.21875 -0.03125,0.328125 -0.15625,0.84375 z m 0,0"
   id="id-75155949-e04f-4f26-a32f-b51d6369f08b"
   style="fill:#4d4d4d;stroke-width:0" />&#10;      </g></g>&#10;  <g
   fill-opacity="1"
   id="id-999aaf2d-fd9d-4099-80ca-9364810165f4"
   transform="translate(-149.009,-130.359)"
   style="fill:#4d4d4d;stroke-width:0">&#10;    <g
   transform="translate(154.692,136.259)"
   id="g2835"
   style="fill:#4d4d4d;stroke-width:0"><path
   d="m 5.1875,-1.578125 c 0.109375,0 0.28125,0 0.28125,-0.15625 0,-0.1875 -0.171875,-0.1875 -0.28125,-0.1875 H 1.03125 c -0.109375,0 -0.28125,0 -0.28125,0.171875 0,0.171875 0.15625,0.171875 0.28125,0.171875 z m 0,0"
   id="id-a7b58b9e-beda-430a-b33e-63fdd0b0fb05"
   style="fill:#4d4d4d;stroke-width:0" />&#10;      </g></g>&#10;  <g
   fill-opacity="1"
   id="id-85691b9c-695e-4730-b51c-62fae79e7cae"
   transform="translate(-149.009,-130.359)"
   style="fill:#4d4d4d;stroke-width:0">&#10;    <g
   transform="translate(160.919,136.259)"
   id="g5587"
   style="fill:#4d4d4d;stroke-width:0"><path
   d="M 1.734375,-0.734375 C 1.671875,-0.5 1.4375,-0.125 1.078125,-0.125 c -0.015625,0 -0.234375,0 -0.375,-0.09375 0.28125,-0.09375 0.3125,-0.34375 0.3125,-0.390625 0,-0.15625 -0.125,-0.25 -0.28125,-0.25 -0.203125,0 -0.40625,0.15625 -0.40625,0.421875 0,0.34375 0.390625,0.5 0.734375,0.5 0.328125,0 0.609375,-0.1875 0.78125,-0.484375 C 2.015625,-0.0625 2.390625,0.0625 2.671875,0.0625 c 0.8125,0 1.234375,-0.859375 1.234375,-1.0625 0,-0.09375 -0.09375,-0.09375 -0.109375,-0.09375 -0.109375,0 -0.109375,0.046875 -0.140625,0.125 -0.140625,0.484375 -0.5625,0.84375 -0.953125,0.84375 -0.28125,0 -0.421875,-0.1875 -0.421875,-0.453125 0,-0.1875 0.171875,-0.8125 0.359375,-1.59375 C 2.78125,-2.703125 3.09375,-2.875 3.328125,-2.875 c 0.015625,0 0.21875,0 0.375,0.09375 -0.21875,0.0625 -0.3125,0.265625 -0.3125,0.390625 0,0.140625 0.125,0.25 0.28125,0.25 0.15625,0 0.390625,-0.125 0.390625,-0.421875 0,-0.390625 -0.453125,-0.515625 -0.71875,-0.515625 -0.359375,0 -0.640625,0.234375 -0.78125,0.5 -0.125,-0.28125 -0.453125,-0.5 -0.84375,-0.5 C 0.9375,-3.078125 0.5,-2.21875 0.5,-2 c 0,0.078125 0.09375,0.078125 0.109375,0.078125 0.09375,0 0.09375,-0.015625 0.140625,-0.109375 C 0.921875,-2.578125 1.359375,-2.875 1.703125,-2.875 1.9375,-2.875 2.125,-2.75 2.125,-2.421875 2.125,-2.28125 2.03125,-1.9375 1.96875,-1.6875 Z m 0,0"
   id="id-f8ec4425-f30f-4254-b902-05672c7cc3bb"
   style="fill:#4d4d4d;stroke-width:0" />&#10;      </g></g>&#10;</g><g
       transform="matrix(1.20145,0,0,1.19717,105.282,123.233)"
       ns1:version="1.9.0"
       ns1:texconverter="pdflatex"
       ns1:pdfconverter="inkscape"
       ns1:text="$n_{+x}$"
       ns1:preamble="/usr/share/inkscape/extensions/textext/default_packages.tex"
       ns1:scale="3.3996119336566006"
       ns1:alignment="middle center"
       ns1:stroke-to-path="0"
       ns1:inkscapeversion="1.3"
       id="g43"
       ns1:jacobian_sqrt="1.1993080907339866"
       style="fill:#4d4d4d;stroke-width:0"><defs
   id="id-d0a0533c-6c58-45c0-b902-f1f082e76508"
   style="fill:#4d4d4d;stroke-width:0">&#10;    <g
   id="id-72d28d3c-c1c7-4cc1-ae00-ecc26fb490ec"
   style="fill:#4d4d4d;stroke-width:0">&#10;      <g
   id="id-1b219184-2dfb-429f-bc93-ac6129db644a"
   style="fill:#4d4d4d;stroke-width:0">&#10;        <path
   d="m 0.875,-0.59375 c -0.03125,0.15625 -0.09375,0.390625 -0.09375,0.4375 0,0.171875 0.140625,0.265625 0.296875,0.265625 0.125,0 0.296875,-0.078125 0.375,-0.28125 0,-0.015625 0.125,-0.484375 0.1875,-0.734375 l 0.21875,-0.890625 C 1.90625,-2.03125 1.96875,-2.25 2.03125,-2.46875 c 0.03125,-0.171875 0.109375,-0.46875 0.125,-0.5 0.140625,-0.3125 0.671875,-1.21875 1.625,-1.21875 0.453125,0 0.53125,0.375 0.53125,0.703125 0,0.609375 -0.484375,1.890625 -0.640625,2.3125 C 3.578125,-0.9375 3.5625,-0.8125 3.5625,-0.703125 c 0,0.46875 0.359375,0.8125 0.828125,0.8125 0.9375,0 1.296875,-1.453125 1.296875,-1.53125 0,-0.109375 -0.078125,-0.109375 -0.109375,-0.109375 -0.109375,0 -0.109375,0.03125 -0.15625,0.1875 -0.203125,0.671875 -0.53125,1.234375 -1.015625,1.234375 -0.171875,0 -0.234375,-0.09375 -0.234375,-0.328125 0,-0.25 0.078125,-0.484375 0.171875,-0.703125 0.1875,-0.53125 0.609375,-1.625 0.609375,-2.203125 0,-0.65625 -0.421875,-1.0625 -1.140625,-1.0625 -0.90625,0 -1.390625,0.640625 -1.5625,0.875 -0.046875,-0.5625 -0.453125,-0.875 -0.921875,-0.875 -0.453125,0 -0.640625,0.390625 -0.734375,0.5625 C 0.421875,-3.5 0.296875,-2.90625 0.296875,-2.875 c 0,0.109375 0.09375,0.109375 0.109375,0.109375 0.109375,0 0.109375,-0.015625 0.171875,-0.234375 0.171875,-0.703125 0.375,-1.1875 0.734375,-1.1875 0.1875,0 0.296875,0.125 0.296875,0.453125 0,0.21875 -0.03125,0.328125 -0.15625,0.84375 z m 0,0"
   id="id-968d76fd-1a84-400c-a7cb-1eaf6af66c32"
   style="fill:#4d4d4d;stroke-width:0" />&#10;      </g>&#10;      <g
   id="id-6434b5ea-3b6f-4cba-9d22-4a51842f9ee7"
   style="fill:#4d4d4d;stroke-width:0">&#10;        <path
   d="m 3.21875,-1.578125 h 2.140625 c 0.09375,0 0.25,0 0.25,-0.15625 0,-0.1875 -0.15625,-0.1875 -0.25,-0.1875 H 3.21875 V -4.0625 c 0,-0.078125 0,-0.25 -0.15625,-0.25 -0.171875,0 -0.171875,0.15625 -0.171875,0.25 v 2.140625 H 0.75 c -0.09375,0 -0.265625,0 -0.265625,0.171875 0,0.171875 0.15625,0.171875 0.265625,0.171875 H 2.890625 V 0.5625 c 0,0.09375 0,0.265625 0.15625,0.265625 0.171875,0 0.171875,-0.171875 0.171875,-0.265625 z m 0,0"
   id="id-b024c062-ca8a-458c-907a-11dad4daccbf"
   style="fill:#4d4d4d;stroke-width:0" />&#10;      </g>&#10;      <g
   id="id-b001a1db-4f48-4496-85eb-01f4b7261ca4"
   style="fill:#4d4d4d;stroke-width:0">&#10;        <path
   d="M 1.734375,-0.734375 C 1.671875,-0.5 1.4375,-0.125 1.078125,-0.125 c -0.015625,0 -0.234375,0 -0.375,-0.09375 0.28125,-0.09375 0.3125,-0.34375 0.3125,-0.390625 0,-0.15625 -0.125,-0.25 -0.28125,-0.25 -0.203125,0 -0.40625,0.15625 -0.40625,0.421875 0,0.34375 0.390625,0.5 0.734375,0.5 0.328125,0 0.609375,-0.1875 0.78125,-0.484375 C 2.015625,-0.0625 2.390625,0.0625 2.671875,0.0625 c 0.8125,0 1.234375,-0.859375 1.234375,-1.0625 0,-0.09375 -0.09375,-0.09375 -0.109375,-0.09375 -0.109375,0 -0.109375,0.046875 -0.140625,0.125 -0.140625,0.484375 -0.5625,0.84375 -0.953125,0.84375 -0.28125,0 -0.421875,-0.1875 -0.421875,-0.453125 0,-0.1875 0.171875,-0.8125 0.359375,-1.59375 C 2.78125,-2.703125 3.09375,-2.875 3.328125,-2.875 c 0.015625,0 0.21875,0 0.375,0.09375 -0.21875,0.0625 -0.3125,0.265625 -0.3125,0.390625 0,0.140625 0.125,0.25 0.28125,0.25 0.15625,0 0.390625,-0.125 0.390625,-0.421875 0,-0.390625 -0.453125,-0.515625 -0.71875,-0.515625 -0.359375,0 -0.640625,0.234375 -0.78125,0.5 -0.125,-0.28125 -0.453125,-0.5 -0.84375,-0.5 C 0.9375,-3.078125 0.5,-2.21875 0.5,-2 c 0,0.078125 0.09375,0.078125 0.109375,0.078125 0.09375,0 0.09375,-0.015625 0.140625,-0.109375 C 0.921875,-2.578125 1.359375,-2.875 1.703125,-2.875 1.9375,-2.875 2.125,-2.75 2.125,-2.421875 2.125,-2.28125 2.03125,-1.9375 1.96875,-1.6875 Z m 0,0"
   id="id-bde2e3f3-31ba-4654-98fc-1ef4b39015ef"
   style="fill:#4d4d4d;stroke-width:0" />&#10;      </g>&#10;    </g>&#10;  </defs>&#10;  <g
   fill-opacity="1"
   id="id-bbedf42d-9d3f-4c89-9321-68e4ded966f1"
   transform="translate(-149.009,-130.359)"
   style="fill:#4d4d4d;stroke-width:0">&#10;    <g
   transform="translate(148.712,134.765)"
   id="g6414"
   style="fill:#4d4d4d;stroke-width:0"><path
   d="m 0.875,-0.59375 c -0.03125,0.15625 -0.09375,0.390625 -0.09375,0.4375 0,0.171875 0.140625,0.265625 0.296875,0.265625 0.125,0 0.296875,-0.078125 0.375,-0.28125 0,-0.015625 0.125,-0.484375 0.1875,-0.734375 l 0.21875,-0.890625 C 1.90625,-2.03125 1.96875,-2.25 2.03125,-2.46875 c 0.03125,-0.171875 0.109375,-0.46875 0.125,-0.5 0.140625,-0.3125 0.671875,-1.21875 1.625,-1.21875 0.453125,0 0.53125,0.375 0.53125,0.703125 0,0.609375 -0.484375,1.890625 -0.640625,2.3125 C 3.578125,-0.9375 3.5625,-0.8125 3.5625,-0.703125 c 0,0.46875 0.359375,0.8125 0.828125,0.8125 0.9375,0 1.296875,-1.453125 1.296875,-1.53125 0,-0.109375 -0.078125,-0.109375 -0.109375,-0.109375 -0.109375,0 -0.109375,0.03125 -0.15625,0.1875 -0.203125,0.671875 -0.53125,1.234375 -1.015625,1.234375 -0.171875,0 -0.234375,-0.09375 -0.234375,-0.328125 0,-0.25 0.078125,-0.484375 0.171875,-0.703125 0.1875,-0.53125 0.609375,-1.625 0.609375,-2.203125 0,-0.65625 -0.421875,-1.0625 -1.140625,-1.0625 -0.90625,0 -1.390625,0.640625 -1.5625,0.875 -0.046875,-0.5625 -0.453125,-0.875 -0.921875,-0.875 -0.453125,0 -0.640625,0.390625 -0.734375,0.5625 C 0.421875,-3.5 0.296875,-2.90625 0.296875,-2.875 c 0,0.109375 0.09375,0.109375 0.109375,0.109375 0.109375,0 0.109375,-0.015625 0.171875,-0.234375 0.171875,-0.703125 0.375,-1.1875 0.734375,-1.1875 0.1875,0 0.296875,0.125 0.296875,0.453125 0,0.21875 -0.03125,0.328125 -0.15625,0.84375 z m 0,0"
   id="id-388fe7f3-4fd6-47a2-bf01-8372082e110d"
   style="fill:#4d4d4d;stroke-width:0" />&#10;      </g></g>&#10;  <g
   fill-opacity="1"
   id="id-2a918c68-16d8-4c9d-b2f5-f4adf83b4cfa"
   transform="translate(-149.009,-130.359)"
   style="fill:#4d4d4d;stroke-width:0">&#10;    <g
   transform="translate(154.692,136.259)"
   id="g3066"
   style="fill:#4d4d4d;stroke-width:0"><path
   d="m 3.21875,-1.578125 h 2.140625 c 0.09375,0 0.25,0 0.25,-0.15625 0,-0.1875 -0.15625,-0.1875 -0.25,-0.1875 H 3.21875 V -4.0625 c 0,-0.078125 0,-0.25 -0.15625,-0.25 -0.171875,0 -0.171875,0.15625 -0.171875,0.25 v 2.140625 H 0.75 c -0.09375,0 -0.265625,0 -0.265625,0.171875 0,0.171875 0.15625,0.171875 0.265625,0.171875 H 2.890625 V 0.5625 c 0,0.09375 0,0.265625 0.15625,0.265625 0.171875,0 0.171875,-0.171875 0.171875,-0.265625 z m 0,0"
   id="id-6a1e1864-8561-473d-b4a6-a0523b53abdd"
   style="fill:#4d4d4d;stroke-width:0" />&#10;      </g></g>&#10;  <g
   fill-opacity="1"
   id="id-590b2085-11f2-4a1d-96d2-07d0215760a1"
   transform="translate(-149.009,-130.359)"
   style="fill:#4d4d4d;stroke-width:0">&#10;    <g
   transform="translate(160.808,136.259)"
   id="g9452"
   style="fill:#4d4d4d;stroke-width:0"><path
   d="M 1.734375,-0.734375 C 1.671875,-0.5 1.4375,-0.125 1.078125,-0.125 c -0.015625,0 -0.234375,0 -0.375,-0.09375 0.28125,-0.09375 0.3125,-0.34375 0.3125,-0.390625 0,-0.15625 -0.125,-0.25 -0.28125,-0.25 -0.203125,0 -0.40625,0.15625 -0.40625,0.421875 0,0.34375 0.390625,0.5 0.734375,0.5 0.328125,0 0.609375,-0.1875 0.78125,-0.484375 C 2.015625,-0.0625 2.390625,0.0625 2.671875,0.0625 c 0.8125,0 1.234375,-0.859375 1.234375,-1.0625 0,-0.09375 -0.09375,-0.09375 -0.109375,-0.09375 -0.109375,0 -0.109375,0.046875 -0.140625,0.125 -0.140625,0.484375 -0.5625,0.84375 -0.953125,0.84375 -0.28125,0 -0.421875,-0.1875 -0.421875,-0.453125 0,-0.1875 0.171875,-0.8125 0.359375,-1.59375 C 2.78125,-2.703125 3.09375,-2.875 3.328125,-2.875 c 0.015625,0 0.21875,0 0.375,0.09375 -0.21875,0.0625 -0.3125,0.265625 -0.3125,0.390625 0,0.140625 0.125,0.25 0.28125,0.25 0.15625,0 0.390625,-0.125 0.390625,-0.421875 0,-0.390625 -0.453125,-0.515625 -0.71875,-0.515625 -0.359375,0 -0.640625,0.234375 -0.78125,0.5 -0.125,-0.28125 -0.453125,-0.5 -0.84375,-0.5 C 0.9375,-3.078125 0.5,-2.21875 0.5,-2 c 0,0.078125 0.09375,0.078125 0.109375,0.078125 0.09375,0 0.09375,-0.015625 0.140625,-0.109375 C 0.921875,-2.578125 1.359375,-2.875 1.703125,-2.875 1.9375,-2.875 2.125,-2.75 2.125,-2.421875 2.125,-2.28125 2.03125,-1.9375 1.96875,-1.6875 Z m 0,0"
   id="id-8c1a93d5-d750-4de0-9c3a-66842a44c10c"
   style="fill:#4d4d4d;stroke-width:0" />&#10;      </g></g>&#10;</g></g></svg>
